<svg width="18" height="18" viewBox="0 0 18 18" fill="none" xmlns="http://www.w3.org/2000/svg">
<path d="M10.6874 1.6875C7.5869 1.6875 5.0624 4.212 5.0624 7.3125C5.0624 8.65969 5.5349 9.89437 6.32802 10.8636L1.84546 15.345L2.6549 16.155L7.1369 11.6724C8.13789 12.4931 9.39301 12.9403 10.6874 12.9375C13.7879 12.9375 16.3124 10.413 16.3124 7.3125C16.3124 4.212 13.7879 1.6875 10.6874 1.6875ZM10.6874 2.8125C13.1793 2.8125 15.1874 4.82062 15.1874 7.3125C15.1874 9.80437 13.1793 11.8125 10.6874 11.8125C8.19552 11.8125 6.1874 9.80437 6.1874 7.3125C6.1874 4.82062 8.19552 2.8125 10.6874 2.8125Z" fill="#131814"/>
</svg>
