<svg width="512" height="354" viewBox="0 0 512 354" fill="none" xmlns="http://www.w3.org/2000/svg">
<g opacity="0.2">
<mask id="mask0_2_8" style="mask-type:alpha" maskUnits="userSpaceOnUse" x="-34" y="0" width="546" height="302">
<path d="M-33.6292 301.993L511.758 301.993L511.758 1.33559e-05L-33.6292 6.10352e-05L-33.6292 301.993Z" fill="white"/>
</mask>
<g mask="url(#mask0_2_8)">
<path fill-rule="evenodd" clip-rule="evenodd" d="M508.151 312.783C507.836 311.198 505.52 310.361 504.215 309.709C502.423 308.814 500.599 308.002 498.901 306.94C493.885 303.803 489.202 300.59 483.799 298.08C481.34 296.937 478.862 295.83 476.443 294.61C473.766 293.261 471.264 291.579 468.492 290.419C463.381 288.278 458.166 286.919 453.249 284.293C442.895 278.762 433.5 271.519 422.866 266.525C417.808 264.148 413.344 261.416 408.808 258.201C404.101 254.866 399.26 252.021 394.204 249.234C384.588 243.937 376.288 236.672 366.603 231.483C356.713 226.184 346.713 221.164 337.7 214.477C334.17 211.857 330.642 209.048 328.035 205.511C325.807 202.49 325.42 198.578 322.951 195.738C315.103 186.714 304.758 179.734 297.295 170.379C295.688 168.366 294.338 166.19 292.852 164.096C291.265 161.863 289.318 159.982 287.413 158.014C283.598 154.07 280.298 149.751 276.72 145.613C269.075 136.771 260.669 128.546 253.562 119.266C250.474 115.234 247.627 110.047 243.325 107.109C240.057 104.874 235.7 105.404 232.471 102.8C230.642 101.325 229.398 99.8381 226.993 99.1978C224.897 98.6381 222.685 98.3965 220.562 97.9055C214.776 96.566 208.93 96.1575 203.259 94.2799C197.989 92.5339 192.943 90.2223 187.742 88.3035C182.758 86.4652 177.839 85.4027 172.575 84.6995C167.672 84.0455 163.834 81.6711 159.437 79.6481C154.173 77.2285 148.393 76.0403 142.888 74.253C137.463 72.4953 132.574 70.215 127.475 67.7443C124.812 66.452 122.06 65.4779 119.079 65.2206C116.174 64.9731 113.251 65.1892 110.347 64.8985C104.908 64.3545 99.7998 62.6262 94.286 62.5987C88.5666 62.5712 82.8996 61.7875 77.2972 60.7054C65.5963 58.4487 54.2341 55.5361 43.0937 51.3685C32.5823 47.4366 21.835 44.0408 11.3982 39.9439C-10.0077 31.54 -29.6294 19.5262 -48.5577 6.7857C-53.1461 3.6983 -57.6982 0.559814 -62.2362 -2.59436C-63.5406 -3.50174 -62.3149 -5.61496 -60.9662 -4.71545C-41.7436 8.1232 -22.2267 20.5887 -1.1857 30.446C9.51523 35.4601 20.6073 38.9167 31.7235 42.8742C42.501 46.7118 53.075 51.178 64.3141 53.6232C70.2452 54.9135 76.1843 56.2667 82.186 57.2134C88.105 58.1482 94.0542 57.724 99.949 58.5273C102.302 58.8474 104.608 59.3914 106.934 59.8412C110.138 60.4638 113.273 60.505 116.527 60.5581C122.044 60.6465 126.721 62.1469 131.59 64.5941C141.789 69.726 153.256 71.2599 163.489 76.1954C165.761 77.2913 167.959 78.672 170.42 79.33C172.831 79.9742 175.359 80.039 177.819 80.4161C183.323 81.2567 188.548 83.1853 193.689 85.2122C198.82 87.2351 203.912 89.421 209.297 90.7447C212.041 91.4204 214.839 91.7621 217.629 92.1961C220.473 92.6361 223.229 93.4276 226.07 93.8616C228.092 94.168 230.051 94.6649 231.852 95.6606C233.979 96.8371 235.315 98.9641 237.587 99.8872C239.238 100.559 241.051 100.708 242.748 101.221C244.772 101.832 246.486 102.912 248.044 104.298C251.897 107.729 254.731 112.237 257.814 116.296C261.435 121.063 265.503 125.508 269.555 129.927C273.569 134.302 277.633 138.639 281.482 143.156C285.106 147.412 288.566 151.703 292.489 155.716C296.219 159.53 298.68 164.106 302.184 168.062C306.145 172.532 310.768 176.554 315.086 180.696C319.284 184.722 324.076 188.605 327.666 193.167C329.983 196.111 330.366 199.933 332.636 202.893C335.369 206.458 339.266 209.3 342.941 211.878C347.808 215.294 352.929 218.346 358.148 221.221C363.237 224.024 368.523 226.508 373.468 229.545C378.213 232.459 382.687 235.761 387.265 238.907C391.92 242.106 396.789 244.758 401.692 247.556C406.704 250.416 411.217 253.955 415.967 257.194C420.424 260.236 425.513 262.094 430.23 264.69C435.403 267.538 440.264 270.975 445.294 274.059C450.32 277.142 455.471 280.522 460.962 282.767C463.476 283.792 466.101 284.533 468.633 285.511C471.431 286.591 473.917 288.046 476.518 289.503C481.419 292.251 486.7 294.296 491.599 297.043C496.057 299.545 499.921 302.898 504.506 305.192C507.358 306.62 511.05 308.452 511.719 311.824C512.169 314.091 508.602 315.063 508.151 312.783Z" fill="#ACCEB0"/>
</g>
<path fill-rule="evenodd" clip-rule="evenodd" d="M267.279 328.956C266.928 330.969 264.051 330.577 263.481 328.956C261.283 322.697 260.457 316.133 257.786 309.972C255.195 303.994 251.595 298.363 247.177 293.504C238.781 284.27 227.626 278.158 215.917 273.778C192.667 265.081 166.414 262.066 145.684 247.769C123.341 232.357 112.71 206.411 93.4655 188.043C75.5816 170.974 52.7504 159.699 28.7539 153.261C16.5229 149.979 3.95714 147.889 -8.6731 146.791C-21.4142 145.682 -34.1473 145.89 -46.9186 146.136C-50.0293 146.196 -53.1461 146.084 -56.2608 146.102C-58.0429 146.112 -58.5026 143.396 -56.6902 143.013C-43.8221 140.295 -30.9055 139.815 -17.7733 140.297C-4.75198 140.774 8.23106 142.294 20.9601 145.038C45.9141 150.415 69.9529 160.563 89.7682 176.462C100.175 184.809 108.715 194.737 116.512 205.399C124.679 216.565 132.344 228.294 142.866 237.556C162.467 254.811 189.605 258.521 213.657 266.853C225.695 271.022 237.398 276.496 246.879 284.992C256.931 294.001 264.053 306.219 266.961 319.213C267.321 320.823 267.763 322.544 267.856 324.192C267.944 325.747 267.545 327.419 267.279 328.956Z" fill="#50614A"/>
<path fill-rule="evenodd" clip-rule="evenodd" d="M-23.029 164.611C-11.441 165.457 0.0844308 167.296 11.3579 170.039C33.2557 175.37 54.341 184.767 71.467 199.272C80.4906 206.915 87.8087 215.983 94.2901 225.733C101.316 236.301 107.846 247.34 117.787 255.629C136.604 271.319 161.977 275.924 183.97 285.78C195.437 290.918 206.468 297.853 215.004 307.001C222.879 315.44 230.334 327.442 227.522 339.258C227.165 340.754 224.883 340.683 224.483 339.258C223.088 334.255 221.915 329.068 219.744 324.31C217.635 319.688 214.672 315.448 211.222 311.685C203.745 303.527 194.251 297.318 184.242 292.485C163.108 282.284 139.16 278.044 119.605 264.671C109.251 257.591 101.568 248.24 94.6328 238.045C87.9276 228.188 81.553 218.269 72.9185 209.865C57.5344 194.89 37.9852 185.15 17.4019 178.826C5.39658 175.138 -6.9131 172.846 -19.3498 171.065C-32.0063 169.252 -44.8522 168.119 -57.6316 167.653C-59.4702 167.586 -59.442 165.021 -57.6316 164.892C-46.1001 164.063 -34.5666 163.768 -23.029 164.611Z" fill="#50614A"/>
<path fill-rule="evenodd" clip-rule="evenodd" d="M62.4454 242.352C58.2682 234.737 53.7302 227.172 47.5713 220.897C40.6383 213.831 31.8989 209.298 22.3653 206.458C10.8841 203.038 -1.16549 201.577 -13.0014 199.823C-26.045 197.893 -38.8304 197.535 -51.8114 200C-52.9565 200.218 -53.8597 198.6 -52.6602 198.036C-42.2375 193.138 -30.0024 192.961 -18.6946 193.865C-7.42316 194.766 3.96522 196.465 15.021 198.796C25.4417 200.996 35.8987 204.384 44.5392 210.645C51.9118 215.987 57.6513 222.987 62.4655 230.554C72.2431 245.924 78.4705 263.972 92.1229 276.718C107.451 291.03 128.814 296.327 147.361 305.365C157.149 310.133 166.56 316.344 173.845 324.369C180.686 331.904 186.637 341.915 185.119 352.299C184.837 354.229 181.762 354.019 181.321 352.299C180.222 348.013 179.218 343.614 177.337 339.57C175.484 335.587 172.952 331.912 169.997 328.628C163.703 321.637 155.804 316.19 147.428 311.811C129.762 302.57 109.801 297.697 93.7055 285.648C78.8012 274.493 71.0859 258.093 62.4454 242.352Z" fill="#50614A"/>
<path fill-rule="evenodd" clip-rule="evenodd" d="M-53.2932 229.132C-35.5725 227.298 -17.7209 225.949 -0.129248 229.551C13.9223 232.426 27.6533 238.475 38.0659 248.264C43.3277 253.209 47.5371 259.05 50.5792 265.523C53.9177 272.627 56.4317 280.173 61.7962 286.155C71.3964 296.865 85.45 302.079 97.9391 308.772C104.771 312.433 111.43 316.707 116.94 322.128C122.337 327.44 126.957 333.998 127.266 341.652C127.355 343.842 124.361 343.885 123.631 342.131C121.105 336.056 117.966 330.463 113.154 325.816C108.269 321.096 102.461 317.39 96.4614 314.162C84.4339 307.684 71.3178 302.841 61.0322 293.679C55.4942 288.747 51.692 282.759 48.6942 276.107C45.6823 269.431 42.8821 262.746 38.0236 257.098C29.3084 246.969 16.9382 240.189 4.02371 236.531C-14.4267 231.304 -34.2662 231.566 -53.2932 232.123C-55.3072 232.182 -55.2164 229.331 -53.2932 229.132Z" fill="#50614A"/>
<path fill-rule="evenodd" clip-rule="evenodd" d="M-46.088 257.345C-37.3628 252.814 -26.8675 251.312 -17.2451 253.757C-8.19124 256.059 -0.691717 261.479 5.38048 268.277C11.489 275.119 16.2971 282.922 21.7746 290.228C27.621 298.027 34.4835 304.74 43.4022 309.151C48.6519 311.748 54.1395 313.136 59.8508 314.384C65.0178 315.511 70.7957 316.858 73.618 321.652C74.1886 322.619 73.235 324.013 72.0617 323.624C67.6547 322.159 63.3324 320.645 58.7662 319.688C53.9258 318.673 49.1882 317.656 44.5957 315.802C35.6769 312.2 28.0262 306.416 21.8593 299.21C10.9164 286.424 3.64067 269.121 -12.1285 261.03C-22.0129 255.958 -34.4234 255.424 -44.697 259.665C-46.2795 260.317 -47.6968 258.182 -46.088 257.345Z" fill="#50614A"/>
</g>
</svg>
