<svg width="33" height="38" viewBox="0 0 33 38" fill="none" xmlns="http://www.w3.org/2000/svg">
<path d="M13.0177 35.2715C-3.76901 26.5323 -0.0838613 8.50028 3.85705 0.576651C24.3043 5.36435 21.9995 25.5758 18.2912 35.083C8.30629 21.6433 9.0768 13.6561 8.19261 18.4635C7.48527 22.3094 11.1146 31.2713 13.0177 35.2715Z" fill="#BED579"/>
<g clip-path="url(#clip0_2_5)">
<path d="M17.2881 29.9537C27.7478 29.9537 28.5905 18.5125 28.6578 13.0753C28.6585 12.9274 28.636 12.7809 28.5918 12.6443C28.5476 12.5078 28.4825 12.384 28.4004 12.2804C28.3183 12.1768 28.2209 12.0954 28.1139 12.041C28.007 11.9866 27.8926 11.9604 27.7776 11.9638C12.9131 12.3148 12.9131 21.5803 12.9131 29.9537V34.4537" stroke="#3D713C" stroke-width="2" stroke-linecap="round" stroke-linejoin="round"/>
<path d="M12.9131 29.9543C12.9131 29.9543 12.9131 23.2043 19.9131 22.0793" stroke="#3D713C" stroke-width="2" stroke-linecap="round" stroke-linejoin="round"/>
</g>
<defs>
<clipPath id="clip0_2_5">
<rect width="21" height="27" fill="white" transform="translate(12 10.9997)"/>
</clipPath>
</defs>
</svg>
