<svg width="262" height="190" viewBox="0 0 262 190" fill="none" xmlns="http://www.w3.org/2000/svg">
<path fill-rule="evenodd" clip-rule="evenodd" d="M10.6002 189.382C22.1881 188.535 33.7136 186.697 44.9871 183.953C66.8849 178.623 87.9702 169.225 105.096 154.721C114.12 147.077 121.438 138.009 127.919 128.26C134.945 117.692 141.475 106.652 151.416 98.3641C170.233 82.6737 195.606 78.0681 217.599 68.2127C229.066 63.0749 240.098 56.14 248.633 46.9917C256.508 38.5524 263.963 26.5504 261.151 14.735C260.794 13.2384 258.512 13.3091 258.113 14.735C256.717 19.7373 255.544 24.9242 253.373 29.683C251.264 34.3043 248.301 38.5446 244.851 42.3076C237.374 50.466 227.881 56.6742 217.871 61.5077C196.737 71.7087 172.789 75.9489 153.234 89.3218C142.88 96.402 135.197 105.753 128.262 115.948C121.557 125.805 115.182 135.723 106.548 144.127C91.1636 159.103 71.6144 168.842 51.031 175.166C39.0257 178.855 26.7161 181.147 14.2794 182.928C1.62291 184.741 -11.223 185.874 -24.0025 186.339C-25.8411 186.406 -25.8128 188.971 -24.0025 189.101C-12.4709 189.93 -0.937412 190.224 10.6002 189.382Z" fill="#50614A"/>
<path fill-rule="evenodd" clip-rule="evenodd" d="M96.0745 111.641C91.8973 119.255 87.3593 126.82 81.2004 133.095C74.2674 140.162 65.528 144.695 55.9944 147.535C44.5132 150.954 32.4636 152.415 20.6277 154.169C7.58415 156.1 -5.20132 156.457 -18.1823 153.992C-19.3274 153.774 -20.2306 155.393 -19.0311 155.956C-8.60836 160.855 3.62674 161.031 14.9345 160.128C26.2059 159.226 37.5943 157.528 48.6501 155.196C59.0708 152.997 69.5278 149.609 78.1683 143.348C85.5409 138.005 91.2804 131.006 96.0946 123.438C105.872 108.068 112.1 90.021 125.752 77.2746C141.08 62.963 162.443 57.6661 180.99 48.6277C190.778 43.8591 200.189 37.649 207.475 29.6241C214.315 22.0882 220.266 12.0777 218.748 1.69402C218.466 -0.236596 215.391 -0.026448 214.95 1.69402C213.851 5.97946 212.847 10.3788 210.966 14.4227C209.114 18.4057 206.581 22.0803 203.626 25.3641C197.332 32.356 189.433 37.8022 181.057 42.1819C163.391 51.4225 143.43 56.2952 127.335 68.3443C112.43 79.4998 104.715 95.8992 96.0745 111.641Z" fill="#50614A"/>
<path fill-rule="evenodd" clip-rule="evenodd" d="M-19.664 124.86C-1.94332 126.695 15.9084 128.044 33.5 124.442C47.5515 121.567 61.2825 115.518 71.6951 105.729C76.9569 100.784 81.1663 94.9429 84.2084 88.4695C87.5469 81.3658 90.0609 73.8201 95.4255 67.8377C105.026 57.128 119.079 51.9136 131.568 45.2203C138.401 41.5594 145.059 37.2857 150.569 31.8651C155.966 26.5525 160.587 19.9947 160.895 12.341C160.984 10.1511 157.99 10.1079 157.26 11.8618C154.734 17.9364 151.595 23.5299 146.783 28.1767C141.898 32.8962 136.09 36.6023 130.091 39.8311C118.063 46.3083 104.947 51.1516 94.6614 60.3136C89.1234 65.2452 85.3213 71.2335 82.3235 77.8855C79.3116 84.5612 76.5113 91.2466 71.6528 96.8951C62.9376 107.023 50.5674 113.803 37.6529 117.462C19.2025 122.688 -0.636953 122.427 -19.664 121.869C-21.6779 121.81 -21.5872 124.662 -19.664 124.86Z" fill="#50614A"/>
<path fill-rule="evenodd" clip-rule="evenodd" d="M-12.4588 96.6474C-3.7336 101.178 6.76169 102.681 16.3841 100.236C25.4379 97.9338 32.9374 92.5132 39.0096 85.7158C45.1181 78.8732 49.9263 71.0703 55.4037 63.7642C61.2501 55.9651 68.1126 49.2522 77.0314 44.841C82.2811 42.2446 87.7686 40.8561 93.4799 39.6089C98.6469 38.4816 104.425 37.1343 107.247 32.3402C107.818 31.3739 106.864 29.9794 105.691 30.3683C101.284 31.8335 96.9616 33.3477 92.3953 34.3042C87.5549 35.3196 82.8173 36.3369 78.2249 38.1909C69.3061 41.7929 61.6554 47.5769 55.4884 54.7828C44.5456 67.5684 37.2698 84.8713 21.5007 92.963C11.6162 98.034 -0.794273 98.5682 -11.0678 94.3279C-12.6504 93.6759 -14.0676 95.8108 -12.4588 96.6474Z" fill="#50614A"/>
</svg>
