<svg width="546" height="302" viewBox="0 0 546 302" fill="none" xmlns="http://www.w3.org/2000/svg">
<mask id="mask0_2_13" style="mask-type:alpha" maskUnits="userSpaceOnUse" x="0" y="0" width="546" height="302">
<path d="M0 0H545.387V301.993H0V0Z" fill="white"/>
</mask>
<g mask="url(#mask0_2_13)">
<path fill-rule="evenodd" clip-rule="evenodd" d="M541.78 -10.7901C541.465 -9.20519 539.149 -8.36852 537.845 -7.71648C536.052 -6.82089 534.228 -6.00976 532.53 -4.94724C527.515 -1.81073 522.831 1.40238 517.429 3.91237C514.969 5.05542 512.491 6.16311 510.072 7.38276C507.395 8.73203 504.893 10.4132 502.121 11.5739C497.01 13.7147 491.795 15.0738 486.878 17.6996C476.524 23.2303 467.129 30.4735 456.495 35.468C451.437 37.8444 446.973 40.5763 442.437 43.7914C437.73 47.1263 432.89 49.9721 427.833 52.759C418.217 58.0559 409.917 65.3208 400.232 70.5096C390.342 75.8085 380.343 80.8285 371.329 87.5159C367.799 90.1359 364.271 92.9444 361.664 96.4816C359.437 99.5022 359.05 103.415 356.58 106.254C348.732 115.279 338.388 122.259 330.924 131.614C329.318 133.627 327.967 135.803 326.481 137.896C324.895 140.13 322.947 142.011 321.042 143.979C317.228 147.923 313.927 152.242 310.349 156.38C302.704 165.222 294.298 173.447 287.191 182.727C284.103 186.759 281.256 191.946 276.954 194.884C273.686 197.119 269.33 196.589 266.1 199.193C264.271 200.668 263.027 202.155 260.622 202.795C258.526 203.355 256.314 203.596 254.191 204.087C248.405 205.427 242.559 205.835 236.888 207.713C231.618 209.459 226.572 211.77 221.371 213.689C216.387 215.527 211.468 216.59 206.205 217.293C201.302 217.947 197.463 220.322 193.066 222.345C187.802 224.764 182.023 225.952 176.517 227.74C171.092 229.497 166.203 231.778 161.105 234.248C158.441 235.541 155.69 236.515 152.708 236.772C149.803 237.02 146.88 236.803 143.977 237.094C138.537 237.638 133.429 239.367 127.915 239.394C122.196 239.421 116.529 240.205 110.926 241.287C99.2255 243.544 87.8633 246.457 76.7229 250.624C66.2115 254.556 55.4642 257.952 45.0274 262.049C23.6215 270.453 3.99973 282.466 -14.9285 295.207C-19.5169 298.294 -24.069 301.433 -28.6071 304.587C-29.9114 305.494 -28.6857 307.608 -27.337 306.708C-8.11441 293.869 11.4025 281.404 32.4435 271.547C43.1444 266.533 54.2364 263.076 65.3527 259.118C76.1302 255.281 86.7041 250.815 97.9433 248.369C103.874 247.079 109.814 245.726 115.815 244.779C121.734 243.844 127.683 244.269 133.578 243.465C135.931 243.145 138.237 242.601 140.564 242.151C143.767 241.529 146.902 241.488 150.156 241.435C155.674 241.346 160.351 239.846 165.219 237.399C175.418 232.267 186.885 230.733 197.118 225.797C199.39 224.701 201.588 223.321 204.049 222.663C206.461 222.018 208.989 221.954 211.448 221.577C216.952 220.736 222.177 218.807 227.318 216.781C232.449 214.758 237.541 212.572 242.926 211.248C245.67 210.572 248.468 210.231 251.258 209.797C254.103 209.357 256.859 208.565 259.699 208.131C261.721 207.825 263.681 207.328 265.481 206.332C267.608 205.156 268.944 203.029 271.216 202.105C272.868 201.434 274.68 201.285 276.377 200.772C278.402 200.161 280.115 199.081 281.673 197.694C285.526 194.263 288.361 189.756 291.443 185.696C295.064 180.93 299.132 176.485 303.184 172.066C307.198 167.69 311.262 163.354 315.111 158.837C318.736 154.581 322.195 150.289 326.118 146.277C329.848 142.463 332.309 137.887 335.813 133.931C339.775 129.461 344.397 125.439 348.716 121.297C352.913 117.271 357.705 113.388 361.295 108.825C363.612 105.881 363.995 102.059 366.265 99.0996C368.999 95.5349 372.895 92.693 376.571 90.1143C381.437 86.6989 386.558 83.6468 391.777 80.7715C396.866 77.9689 402.152 75.4845 407.097 72.4481C411.843 69.5335 416.316 66.232 420.894 63.0857C425.549 59.8864 430.418 57.235 435.321 54.4363C440.333 51.5767 444.847 48.0376 449.596 44.7989C454.054 41.7567 459.142 39.8987 463.859 37.3023C469.032 34.4545 473.893 31.0175 478.923 27.9341C483.949 24.8506 489.1 21.4705 494.591 19.2257C497.105 18.2005 499.73 17.46 502.262 16.482C505.06 15.4018 507.546 13.9464 510.147 12.4892C515.048 9.74152 520.33 7.697 525.229 4.94936C529.686 2.44722 533.551 -0.905323 538.135 -3.19928C540.988 -4.6271 544.679 -6.45952 545.348 -9.8317C545.798 -12.0982 542.231 -13.0703 541.78 -10.7901Z" fill="#ACCEB0"/>
</g>
</svg>
