<svg width="250" height="253" viewBox="0 0 250 253" fill="none" xmlns="http://www.w3.org/2000/svg">
<mask id="mask0_2_12" style="mask-type:alpha" maskUnits="userSpaceOnUse" x="-123" y="0" width="373" height="253">
<path d="M-123 0H249.258V252.673H-123V0Z" fill="white"/>
</mask>
<g mask="url(#mask0_2_12)">
<path fill-rule="evenodd" clip-rule="evenodd" d="M-93.1068 161.032C-87.8531 167.476 -82.0692 173.484 -76.4143 179.594C-83.7102 173.288 -91.8165 167.16 -100.342 163.373C-109.418 159.341 -117.021 153.626 -126.582 150.364C-132.445 148.364 -138.457 148.828 -144.454 148.622C-140.602 144.515 -136.574 140.552 -132.566 136.706C-128.32 132.633 -123.689 129.005 -119.276 125.13C-112.392 138.211 -102.519 149.49 -93.1068 161.032ZM237.36 2.3568C227.445 3.86908 217.426 4.36794 207.513 5.98234C187.444 9.25437 167.217 12.1513 147.259 16.0439C138.118 17.8272 128.982 19.8973 119.793 21.4292C109.189 23.1988 98.5241 23.1791 87.9804 25.4436C67.6007 29.8194 47.731 36.0001 28.1254 42.9448C13.0215 48.2948 -2.22953 54.0198 -16.908 60.4185C-32.9272 67.4025 -47.525 76.7158 -63.3163 84.1378C-70.6425 87.5787 -78.4202 89.8628 -85.8794 92.9797C-98.8846 98.4141 -111.515 105.966 -123.067 113.881C-140.511 125.833 -155.058 141.009 -169.297 156.34L-169.517 182.762C-167.507 178.312 -164.161 174.492 -161.36 170.497C-158.832 166.889 -156.522 163.138 -153.859 159.62C-152.657 158.035 -151.369 156.497 -150.077 154.962C-145.71 159.438 -140.311 162.851 -135.013 167.103C-125.074 175.079 -116.363 184.335 -107.18 193.083C-103.352 196.732 -99.0842 199.898 -94.6289 202.783C-86.5266 208.027 -78.6642 214.074 -69.6627 217.737C-60.2924 221.551 -51.2849 226.084 -41.977 230.014C-39.7271 230.966 -37.3926 232.003 -35.0198 233.021C-31.6349 236.232 -28.0404 239.225 -24.1172 241.91C-20.3735 244.471 -16.4625 246.896 -12.499 249.122C-10.2028 250.412 -7.0518 252.649 -4.23545 252.673C1.09284 252.718 -0.874777 248.648 -2.66499 245.486C-6.24339 239.17 -9.06377 232.402 -12.8256 226.164C-18.7285 216.382 -25.9337 208.098 -33.2961 199.397C-41.3198 189.915 -48.0552 179.382 -55.4156 169.413C-60.0162 163.183 -65.7577 157.717 -70.6425 151.658C-73.9185 147.595 -77.1098 143.35 -81.3333 140.18C-84.7404 137.623 -87.4418 134.487 -90.7339 131.794C-93.9656 129.153 -97.6287 128.479 -101.282 126.605C-105.102 124.643 -109.267 122.613 -112.714 120.073C-112.845 119.977 -112.95 119.898 -113.077 119.804C-110.432 117.966 -107.555 116.597 -104.731 114.747C-101.483 112.618 -98.2476 110.396 -95.0442 108.13C-94.8869 109.976 -94.6631 112.001 -93.764 113.337C-92.0524 115.878 -87.1979 117.956 -84.8029 119.794C-73.7895 128.247 -63.5522 137.696 -52.6376 146.292C-43.3801 153.585 -34.2577 160.983 -24.5083 167.657C-15.8012 173.618 -6.16073 176.293 3.24995 180.896C10.3926 184.392 16.7269 188.756 24.1256 191.842C29.6898 194.165 35.2439 196.518 40.7798 198.904C46.3218 201.294 51.9404 203.431 57.5771 205.593C60.0447 206.54 63.8287 208.824 66.1512 208.885C66.1229 206.471 62.7925 204.549 61.2341 203.095C54.5914 196.897 48.116 190.702 40.7173 185.36C33.2521 179.971 26.3533 174.175 20.1884 167.368C15.4871 162.177 11.3906 156.765 5.649 152.595C-2.73958 146.503 -9.53954 139.283 -17.035 132.358C-19.7849 129.818 -22.7585 127.587 -25.3893 124.93C-27.9638 122.33 -29.9495 121.839 -33.153 120.379C-36.3241 118.932 -39.0437 117.192 -42.4931 116.253C-45.8941 115.328 -48.7104 113.478 -52.1417 112.72C-56.1434 111.836 -60.2278 111.866 -64.1973 110.797C-67.9773 109.78 -71.3279 109.116 -75.2168 108.698C-80.5894 108.122 -85.3028 106.276 -90.2299 104.671C-88.1494 103.155 -86.083 101.631 -84.0489 100.097C-81.5773 98.2334 -79.15 97.3299 -76.5393 95.9041C-70.2312 92.4592 -64.6933 88.8769 -57.8873 86.2844C-53.3734 84.5639 -48.8556 82.8553 -44.3438 81.1289C-41.1363 89.1597 -38.0861 97.273 -34.7194 105.237C-31.895 111.915 -27.3489 116.715 -23.1375 122.516C-18.8877 128.375 -14.6945 134.495 -9.33391 139.507C-2.62466 145.776 5.11275 150.845 12.6465 156.065C22.7124 163.041 31.6776 171.361 43.0458 176.328C55.6337 181.827 67.9253 184.822 81.3659 187.554C85.0814 188.308 94.3167 192.499 97.4758 188.958C97.0484 187.643 95.9033 187.77 94.9699 186.9C92.9741 185.048 91.2262 182.901 89.3694 180.879C84.9222 176.037 80.1019 171.626 75.0639 167.37C62.9135 157.108 50.6703 146.99 38.7053 136.52C22.9564 122.74 9.94711 105.323 -8.09005 94.3191C-15.015 90.0926 -21.7041 85.1453 -28.8105 81.2684C-31.1974 79.9662 -33.2235 78.8899 -35.2738 78.3734C-34.1408 78.3773 -32.9675 78.6248 -31.5825 79.2376C-24.3088 82.4507 -17.8354 86.1725 -11.1685 90.2458C-7.72515 92.3492 -3.83427 92.253 -0.39497 94.653C1.81658 96.1967 3.57051 98.6007 5.75384 99.9597C8.63067 101.751 11.7172 102.79 14.5396 104.84C17.0656 106.677 19.6925 109.289 22.2588 110.793C27.5045 113.865 32.2158 117.164 38.0501 119.009C42.3523 120.368 47.477 122.978 51.386 125.079C54.8696 126.951 58.9722 127.746 62.5607 129.559C65.7137 131.152 67.645 132.44 71.1629 133.267C74.6083 134.076 77.6242 135.585 81.001 136.573C83.894 137.417 86.9986 137.735 89.9702 138.224C94.1252 138.912 97.6089 140.632 101.641 141.428C114.729 144.008 129.008 144.696 142.356 144.462C145.598 144.405 151.507 145.58 154.434 143.914C155.472 143.323 155.527 141.948 156.77 141.312C154.696 139.691 151.432 138.949 149.108 137.71C144.199 135.092 139.34 132.285 134.613 129.373C121.291 121.163 107.153 113.867 93.0607 106.991C82.9485 102.055 72.0621 99.1231 61.5305 95.1853C49.9566 90.8586 39.7859 84.4265 28.7423 79.0589C20.5775 75.0896 11.9873 72.6975 3.6471 69.2094C2.57459 68.7616 1.15735 67.8758 -0.306269 67.2945C4.30231 67.0392 8.70928 65.9845 13.5557 66.9979C18.6623 68.0683 22.7406 68.3217 27.9056 68.3845C33.9234 68.4572 39.2214 71.1125 44.6203 73.4104C55.2023 77.9158 65.4536 81.671 76.5678 84.7211C83.5412 86.634 90.1537 88.9122 97.4597 89.1794C104.243 89.4268 109.527 89.6232 116.108 91.1708C128.03 93.9774 139.259 91.4379 151.355 91.8897C165.742 92.4278 179.09 93.4943 193.359 90.8095C201.471 89.2834 209.88 88.215 217.92 86.469C219.498 86.1253 226.242 84.7132 226.8 82.8887C222.419 78.5561 215.305 77.5485 209.505 76.488C200.683 74.8775 192.169 72.7603 183.484 70.6392C176.267 68.8755 169.546 66.7917 162.593 64.2699C154.317 61.2709 145.328 60.4146 136.806 58.2758C124.978 55.3082 114.563 56.0427 102.354 56.8303C90.9459 57.5648 79.364 55.9288 67.9353 55.7678C56.2103 55.6028 44.7171 53.9413 33.0263 53.1419C29.5144 52.9023 25.9037 52.3386 22.5229 53.1282C25.6316 52.1953 28.9015 51.7455 32.0788 51.0247C40.3363 49.1471 48.8539 48.9743 57.0711 46.8434C62.0405 45.553 66.9757 43.7736 72.1226 43.318C75.4046 43.0293 78.7028 43.3749 81.9748 42.8702C88.2284 41.9019 92.6938 40.1697 99.1874 41.0221C107.286 42.0885 115.757 41.352 123.978 41.7625C132.179 42.171 139.862 40.7589 147.92 39.8535C153.474 39.2309 158.561 38.8617 164.01 37.3926C167.423 36.4715 170.765 36.9919 174.267 36.823C181.64 36.4656 187.976 31.316 194.306 28.423C196.992 27.1955 199.977 26.6122 202.667 25.4024C205.763 24.0119 208.086 21.5431 210.751 19.53C215.718 15.7788 221.53 14.6357 227.046 11.9667C229.939 10.5683 232.53 8.7123 235.517 7.47106C237.644 6.58726 240.065 6.10215 242.138 5.08676C243.656 4.34437 249.377 1.46318 249.258 0C245.329 0.296564 241.271 1.76171 237.36 2.3568Z" fill="#ACCEB0"/>
</g>
</svg>
