<svg width="264" height="284" viewBox="0 0 264 284" fill="none" xmlns="http://www.w3.org/2000/svg">
<path fill-rule="evenodd" clip-rule="evenodd" d="M189.812 107.988C190.969 113.304 190.749 119.039 189.052 122.967C184.383 133.763 170.315 136.285 162.644 127.062C158.9 122.561 156.005 116.657 157.919 110.71C158.806 107.956 161.364 104.482 163.313 102.357C167.222 98.0992 176.532 91.9283 182.49 95.6265C186.199 97.9303 188.673 102.758 189.812 107.988Z" fill="#E9E9DB"/>
<path fill-rule="evenodd" clip-rule="evenodd" d="M162.187 168.984C173.168 167.338 174.72 177.814 173.629 185.996C173.089 190.052 172.91 195.243 168.567 196.572C162.999 198.275 156.56 196.588 154.078 191.126C150.988 184.331 152.871 178.513 156.901 172.808C158.386 170.706 159.471 169.39 162.187 168.984Z" fill="#E9E9DB"/>
<path fill-rule="evenodd" clip-rule="evenodd" d="M107.468 49.2803C118.451 47.6345 120.002 58.1104 118.913 66.2925C118.373 70.3481 118.191 75.539 113.851 76.8666C108.281 78.5714 101.842 76.8823 99.3599 71.4224C96.2714 64.627 98.1523 58.8077 102.184 53.1042C103.668 51.0008 104.755 49.6869 107.468 49.2803Z" fill="#E9E9DB"/>
<path fill-rule="evenodd" clip-rule="evenodd" d="M98.5171 158.524C109.456 158.842 110.428 174.136 106.162 182.642C103.573 187.803 99.9102 188.349 95.3298 190.209C89.5742 192.546 83.3488 193.64 77.9398 189.321C69.6339 182.689 81.4215 171.209 85.1773 166.075C87.0179 163.557 88.7375 161.167 91.4853 159.914C93.6223 158.938 96.233 158.457 98.5171 158.524Z" fill="#E9E9DB"/>
<path fill-rule="evenodd" clip-rule="evenodd" d="M188.491 258.393C187.764 268.602 176.434 291.789 163.082 279.027C155.987 272.247 159.894 260.744 165.894 254.854C168.422 252.37 169.968 249.365 172.299 246.774C173.718 245.195 175.68 243.573 177.659 242.719C187.81 238.339 188.951 251.953 188.491 258.393Z" fill="#E9E9DB"/>
<path fill-rule="evenodd" clip-rule="evenodd" d="M124.57 210.703C134.469 213.378 135.593 223.01 131.447 230.952C129.868 233.975 127.638 239.291 124.691 241.285C120.802 243.916 114.081 242.253 110.377 240.126C103.618 236.247 103.843 229.473 106.176 222.933C107.98 217.882 111.093 212.388 116.655 210.636C119.246 209.821 121.979 210.004 124.57 210.703Z" fill="#E9E9DB"/>
<path fill-rule="evenodd" clip-rule="evenodd" d="M40.6782 269.455C38.2913 278.99 31.334 285.565 20.9315 283.04C18.097 282.35 11.2164 280.639 9.52495 277.904C7.95852 275.374 8.74275 270.511 9.43423 267.691C10.8374 261.96 15.2 258.643 18.9437 254.387C23.0926 249.673 27.9653 248.035 34.481 251.541C41.0008 255.051 42.3031 262.958 40.6782 269.455Z" fill="#E9E9DB"/>
<path fill-rule="evenodd" clip-rule="evenodd" d="M246.826 154.586C249.01 160.794 245.586 168.081 242.437 173.383C239.063 179.071 231.726 177.963 225.636 177.174C222.917 172.431 225.285 162.481 228.039 158.009C229.428 155.755 231.551 154.333 233.801 152.966C238.244 150.267 244.611 148.291 246.826 154.586Z" fill="#E9E9DB"/>
<path fill-rule="evenodd" clip-rule="evenodd" d="M248.256 110.657C257.17 105.814 267.307 93.3738 262.194 82.9686C258.668 75.7941 249.985 78.0272 244.449 81.4426C241.524 83.2475 237.97 85.8733 236.738 89.1493C234.686 94.6053 232.547 105.39 235.881 109.581C239.226 113.788 243.861 113.043 248.256 110.657Z" fill="#E9E9DB"/>
<path fill-rule="evenodd" clip-rule="evenodd" d="M184.623 6.26259C179.163 10.9408 176.335 16.6541 181.212 22.9919C184.709 27.5347 191.316 31.883 197.366 30.025C207.895 26.7883 211.448 7.35852 201.803 1.2878C195.926 -2.41238 188.804 2.68025 184.623 6.26259Z" fill="#E9E9DB"/>
<path fill-rule="evenodd" clip-rule="evenodd" d="M90.5238 114.281C95.963 112.56 101.217 114.088 103.277 119.554C104.851 123.735 104.815 129.843 100.807 132.674C97.354 135.111 90.5621 136.721 86.391 137.151C80.9901 137.709 78.9721 134.412 79.3531 129.402C79.6817 125.073 80.4498 120.224 84.0806 117.313C85.9071 115.848 88.3001 114.984 90.5238 114.281Z" fill="#E9E9DB"/>
<path fill-rule="evenodd" clip-rule="evenodd" d="M13.0206 147.761C22.143 147.429 25.034 157.601 24.9614 164.758C24.8928 171.421 19.0605 181.929 10.8494 180.303C-1.5712 177.84 -2.08326 163.935 3.1039 154.963C5.16022 151.408 8.5592 147.924 13.0206 147.761Z" fill="#E9E9DB"/>
</svg>
