<svg width="208" height="285" viewBox="0 0 208 285" fill="none" xmlns="http://www.w3.org/2000/svg">
<path fill-rule="evenodd" clip-rule="evenodd" d="M190.138 108.89C191.295 114.206 191.075 119.941 189.378 123.869C184.709 134.665 170.641 137.187 162.97 127.964C159.227 123.462 156.332 117.559 158.245 111.614C159.132 108.858 161.69 105.384 163.64 103.259C167.549 99.0008 176.859 92.8299 182.816 96.5281C186.525 98.8339 188.999 103.659 190.138 108.89Z" fill="#ACCEB0"/>
<path fill-rule="evenodd" clip-rule="evenodd" d="M162.513 169.886C173.494 168.24 175.044 178.716 173.956 186.898C173.415 190.953 173.236 196.144 168.893 197.474C163.325 199.177 156.886 197.49 154.405 192.028C151.314 185.232 153.197 179.415 157.227 173.709C158.713 171.608 159.797 170.292 162.513 169.886Z" fill="#ACCEB0"/>
<path fill-rule="evenodd" clip-rule="evenodd" d="M107.795 50.1817C118.778 48.5358 120.328 59.0118 119.239 67.1939C118.699 71.2495 118.518 76.4404 114.177 77.768C108.607 79.4728 102.168 77.7838 99.6862 72.3238C96.5957 65.5284 98.4787 59.7091 102.511 54.0056C103.994 51.9022 105.081 50.5882 107.795 50.1817Z" fill="#ACCEB0"/>
<path fill-rule="evenodd" clip-rule="evenodd" d="M98.8434 159.425C109.782 159.743 110.754 175.037 106.488 183.543C103.9 188.705 100.234 189.251 95.6561 191.111C89.9004 193.448 83.6751 194.542 78.2661 190.223C69.9602 183.59 81.7478 172.111 85.5036 166.977C87.3442 164.459 89.0638 162.069 91.8116 160.816C93.9486 159.84 96.5592 159.359 98.8434 159.425Z" fill="#ACCEB0"/>
<path fill-rule="evenodd" clip-rule="evenodd" d="M188.817 259.295C188.09 269.504 176.758 292.691 163.408 279.928C156.313 273.149 160.221 261.646 166.22 255.756C168.748 253.271 170.294 250.266 172.625 247.676C174.044 246.097 176.006 244.474 177.986 243.62C188.136 239.24 189.277 252.855 188.817 259.295Z" fill="#ACCEB0"/>
<path fill-rule="evenodd" clip-rule="evenodd" d="M124.896 211.607C134.793 214.28 135.92 223.911 131.773 231.854C130.194 234.876 127.965 240.193 125.017 242.186C121.128 244.818 114.407 243.155 110.704 241.028C103.944 237.149 104.17 230.375 106.502 223.837C108.307 218.783 111.417 213.29 116.981 211.538C119.572 210.723 122.306 210.906 124.896 211.607Z" fill="#ACCEB0"/>
<path fill-rule="evenodd" clip-rule="evenodd" d="M41.0044 270.356C38.6175 279.891 31.6602 286.467 21.2576 283.941C18.4231 283.251 11.5426 281.541 9.85118 278.805C8.28475 276.275 9.06893 271.413 9.7584 268.592C11.1636 262.863 15.5262 259.544 19.2699 255.288C23.4189 250.574 28.2915 248.937 34.8072 252.442C41.3269 255.952 42.6293 263.859 41.0044 270.356Z" fill="#ACCEB0"/>
<path fill-rule="evenodd" clip-rule="evenodd" d="M184.949 7.16421C179.49 11.8425 176.661 17.5557 181.538 23.8936C185.036 28.4363 191.642 32.7846 197.692 30.9266C208.222 27.69 211.774 8.26013 202.129 2.1894C196.253 -1.51077 189.13 3.58188 184.949 7.16421Z" fill="#ACCEB0"/>
<path fill-rule="evenodd" clip-rule="evenodd" d="M90.8501 115.182C96.2893 113.462 101.543 114.99 103.603 120.456C105.178 124.637 105.141 130.745 101.132 133.575C97.6803 136.013 90.8884 137.623 86.7173 138.053C81.3165 138.611 79.2984 135.313 79.6794 130.303C80.008 125.975 80.7762 121.127 84.407 118.215C86.2335 116.752 88.6265 115.885 90.8501 115.182Z" fill="#ACCEB0"/>
<path fill-rule="evenodd" clip-rule="evenodd" d="M13.3469 148.663C22.4693 148.333 25.3603 158.502 25.2878 165.659C25.2192 172.323 19.3869 182.83 11.1758 181.204C-1.24481 178.741 -1.75684 164.836 3.43033 155.867C5.48665 152.31 8.88552 148.826 13.3469 148.663Z" fill="#ACCEB0"/>
</svg>
