<svg width="228" height="142" viewBox="0 0 228 142" fill="none" xmlns="http://www.w3.org/2000/svg">
<mask id="mask0_2_15" style="mask-type:alpha" maskUnits="userSpaceOnUse" x="0" y="0" width="300" height="142">
<path d="M0.327637 0H300V141.69H0.327637V0Z" fill="white"/>
</mask>
<g mask="url(#mask0_2_15)">
<path fill-rule="evenodd" clip-rule="evenodd" d="M338.88 138.788C335.717 138.354 332.532 138.012 329.383 137.494C325.801 136.905 322.632 135.63 319.283 134.322C312.527 131.682 305.838 128.895 299.048 126.338C292.825 123.995 285.918 121.917 280.372 118.221C275.423 114.924 271.548 110.21 267.569 105.909C263.375 101.372 258.825 97.1395 254.106 93.1271C249.096 88.8691 243.85 84.4796 238.052 81.2704C232.956 78.4482 227.234 76.4468 222.646 72.8174C218.679 69.6789 215.052 66.619 210.096 65.0694C204.99 63.4746 199.369 63.0425 194.091 62.2825C186.924 61.2514 179.798 60.0298 172.645 58.9358C159.948 56.9915 146.883 57.9008 134.309 55.1532C127.725 53.7135 121.943 51.0445 116.377 47.3561C110.972 43.7777 105.938 39.6965 100.533 36.124C94.9304 32.4218 88.9368 29.3108 83.4231 25.481C77.998 21.716 73.4761 16.9337 68.8877 12.2712C63.6522 6.95266 58.0336 1.9916 52.5883 -3.1207C47.4737 -7.92268 42.0608 -12.1433 35.8696 -15.5509C32.5392 -17.3852 29.0939 -19.1273 25.4328 -20.2468C22.3423 -21.1915 19.2356 -21.3447 16.0322 -21.5253C12.7864 -21.708 9.46005 -21.9712 6.23243 -21.4291C4.99461 -21.2209 3.8717 -20.8458 2.79112 -20.2252C1.46863 -19.4631 0.521106 -18.3829 -1.14209 -18.7149C-3.5026 -19.1862 -4.52897 -15.7217 -2.14606 -15.1639C0.127986 -14.6317 1.87183 -15.1168 3.81525 -16.2775C6.41589 -17.8311 9.12539 -17.7289 12.0929 -17.5502C14.9436 -17.3774 17.9837 -17.2615 20.788 -16.7391C24.4208 -16.0615 27.7875 -14.4039 30.9647 -12.6186C42.218 -6.30238 51.0703 3.09733 60.1483 12.01C65.0734 16.8414 69.5066 22.1442 74.7099 26.7066C79.5161 30.9233 84.9895 34.2817 90.4226 37.6637C101.787 44.7302 111.615 54.6857 124.275 59.5839C136.357 64.2602 149.665 64.0108 162.422 64.9732C169.317 65.4956 176.032 66.8704 182.858 67.8956C189.422 68.8835 196.017 69.7005 202.571 70.7552C206.891 71.4485 210.639 72.5483 214.181 75.1368C216.439 76.7866 218.449 78.7054 220.807 80.2354C223.507 81.9893 226.436 83.3699 229.337 84.7722C240.959 90.3932 251.003 98.9877 259.974 108.052C264.522 112.647 268.558 117.769 273.691 121.786C279.622 126.427 287.14 128.709 294.214 131.178C301.794 133.823 309.29 136.683 316.86 139.352C324.264 141.962 331.153 142.145 338.88 141.082C340.046 140.921 340.048 138.949 338.88 138.788Z" fill="#E6EDE4"/>
</g>
</svg>
