<svg width="720" height="387" viewBox="0 0 720 387" fill="none" xmlns="http://www.w3.org/2000/svg">
<path fill-rule="evenodd" clip-rule="evenodd" d="M816.948 0.576239C811.194 0.867069 807.053 3.46348 802.834 7.08509C797.262 11.8714 791.252 16.1057 785.775 21.0138C774.07 31.4937 762.548 42.494 752.537 54.5452C747.735 60.3272 743.209 66.3567 739.249 72.72C735.244 79.156 732.24 86.0988 727.871 92.3286C719.434 104.36 708.013 114.125 697.202 124.063C691.593 129.22 686.781 135.177 680.932 140.087C674.999 145.068 668.187 148.911 662.246 153.916C656.73 158.563 649.102 159.146 643.223 163.331C637.597 167.334 631.803 170.949 627.035 175.938C624.509 178.58 621.971 180.732 618.648 182.392C615.239 184.095 611.84 185.587 608.927 188.074C606.123 190.464 603.905 193.418 601.161 195.871C597.758 198.913 593.96 201.535 590.1 203.992C583.874 207.955 577.348 212.066 570.161 214.134C566.387 215.22 562.497 216.118 558.612 216.736C553.925 217.484 549.187 217.247 544.482 217.793C540.534 218.25 536.635 219.038 532.688 219.494C528.598 219.967 524.596 219.749 520.495 219.723C513.224 219.678 507.426 223.504 500.426 224.663C492.265 226.014 484.032 226.499 475.869 227.955C467.521 229.443 459.001 228.754 450.576 229.3C442.541 229.82 434.569 231.022 426.656 232.44C422.747 233.14 418.814 233.792 414.984 234.838C410.992 235.93 407.069 237.392 402.926 237.853C386.389 239.688 369.416 236.089 352.933 238.931C345.381 240.233 337.817 240.371 330.263 241.728C326.719 242.364 323.07 242.266 319.583 243.193C316.113 244.116 312.835 245.756 309.833 247.663C304.064 251.328 299.324 257.383 292.109 258.061C284.867 258.74 277.533 258.027 270.261 258.752C254.401 260.333 237.842 264.208 223.008 269.89C216.408 272.42 209.973 275.525 203.509 278.388C196.54 281.478 190.524 286.069 183.795 289.569C169.514 296.995 153.315 301.114 138.461 307.359C131.3 310.368 124.335 313.746 117.674 317.702C111.384 321.435 105.729 326.168 99.3428 329.705C96.603 331.226 93.7625 332.573 91.2828 334.492C88.0229 337.014 85.263 340.066 81.9568 342.54C75.6951 347.228 68.9354 351.311 62.0084 354.994C55.0593 358.686 47.8843 361.952 40.6288 365.032C33.1958 368.188 25.3717 372.69 17.3258 373.984C14.4833 374.44 11.5661 374.689 9.05618 376.187C6.44345 377.743 5.02015 381.021 2.18162 382.166C-0.263786 383.152 0.799364 387.088 3.29043 386.086C5.67737 385.126 7.10066 383.657 8.83241 381.824C11.7556 378.731 15.0114 378.532 19.0334 377.827C26.2345 376.563 33.351 372.54 40.0219 369.722C54.7912 363.48 69.3124 356.685 82.3479 347.381C88.2124 343.198 92.9298 337.919 99.3266 334.46C105.697 331.015 111.302 326.526 117.459 322.739C131.286 314.237 146.43 308.516 161.669 302.911C169.01 300.21 176.495 297.645 183.601 294.387C190.494 291.227 196.447 286.47 203.259 283.163C217.456 276.273 232.159 270.654 247.63 267.172C255.782 265.335 264.024 263.529 272.388 262.951C279.424 262.464 286.645 263.364 293.627 262.495C300.231 261.676 304.342 257.342 309.491 253.707C312.611 251.503 315.962 249.458 319.651 248.296C323.306 247.143 327.203 247.292 330.977 246.687C338.763 245.434 346.549 245.171 354.326 243.851C362.483 242.469 370.987 243.101 379.24 243.091C387.415 243.079 395.864 243.965 403.993 242.954C411.861 241.976 419.508 239.041 427.342 237.639C435.791 236.129 444.286 234.874 452.877 234.473C460.82 234.102 468.728 234.528 476.609 233.236C480.718 232.562 484.687 231.67 488.854 231.315C492.743 230.983 496.646 230.773 500.515 230.243C507.964 229.219 514.217 225.297 521.864 225.588C530.091 225.9 537.813 224.382 545.973 223.893C550.012 223.649 554.035 223.938 558.071 223.52C562.321 223.078 566.545 222.302 570.704 221.35C577.824 219.721 584.007 216.385 590.202 212.7C597.103 208.595 604.01 204.072 609.548 198.28C612.247 195.458 614.695 192.852 618.237 191.014C621.616 189.258 625.055 187.893 628.063 185.526C630.637 183.503 632.726 181.04 635.068 178.782C637.703 176.239 640.992 174.722 643.909 172.536C646.846 170.335 649.564 168.182 653.041 166.825C656.095 165.635 659.279 164.798 662.196 163.284C665.379 161.634 667.744 159.122 670.457 156.873C673.6 154.267 677.094 152.115 680.416 149.742C686.876 145.129 692.033 139.535 697.446 133.84C702.359 128.668 707.788 123.978 712.898 118.996C723.365 108.795 732.893 97.6569 739.138 84.4903C745.866 70.3082 755.426 57.6326 766.076 46.0214C776.757 34.3768 788.101 23.0033 800.483 13.0812C805.723 8.88019 809.654 3.67363 816.948 3.18655C818.654 3.07264 818.68 0.491945 816.948 0.576239Z" fill="#ACCEB0"/>
</svg>
